<svg viewBox="0 0 219 219" xmlns="http://www.w3.org/2000/svg"><style>.fill{fill-rule:evenodd;stroke:none}</style><path d="M62 8a24 24 0 014-2h42a96 96 0 014 0l9 2a96 96 0 014 1l5 2a96 96 0 014 2l7 4a96 96 0 014 3l5 4a96 96 0 013 4l7 9a96 96 0 013 5l3 9a96 96 0 011 4l1 3a96 96 0 011 5v13a96 96 0 01-1 7l-2 8a96 96 0 01-2 5l-4 7a96 96 0 01-3 5l-7 8a96 96 0 01-4 3l-5 4a96 96 0 01-4 3l-8 3a96 96 0 01-5 2l-5 1a38 38 0 00-7 10v46a18 18 0 004 5h3a20 20 0 013 1 15 15 0 012 3v8a20 20 0 01-1 3 19 19 0 01-4 2H64a17 17 0 01-3-1 16 16 0 01-1-3l1-11a9 9 0 011-2 20 20 0 012 0h3a18 18 0 005-5V27a16 16 0 00-4-4h-2a22 22 0 01-4-1 17 17 0 01-1-3l-1-7a21 21 0 012-4z" class="fill"/><path d="M70 10a21 21 0 00-4 2 11 11 0 00-1 2 13 13 0 000 3h1a16 16 0 003 1h3a23 23 0 016 6v169a20 20 0 01-5 4l-3 1a16 16 0 00-3 1 15 15 0 00-1 2 13 13 0 001 3 19 19 0 004 1h42a19 19 0 003-1 14 14 0 001-3 14 14 0 00-1-3 26 26 0 00-4-1h-2a17 17 0 01-4-4v-60a25 25 0 015-6l5-1a44 44 0 002 0l9-3a44 44 0 002-1l11-6a44 44 0 002-2l8-8a44 44 0 001-2l4-6a44 44 0 001-1l5-15a44 44 0 001-2l1-9a44 44 0 000-2l-1-10a44 44 0 000-2l-3-10a44 44 0 00-1-2l-6-10a44 44 0 00-1-2l-7-7a44 44 0 00-2-2l-10-7a44 44 0 00-2-1l-7-3a44 44 0 00-2 0l-9-2a44 44 0 00-2 0z" fill="#fff" class="fill"/><path d="M106 43a15 15 0 014-4 96 96 0 018 3l2 1a96 96 0 017 6l1 1a96 96 0 015 9l1 3a96 96 0 010 10v1a96 96 0 01-3 9v1a96 96 0 01-7 8l-3 3a96 96 0 01-9 4 18 18 0 01-6-4z" class="fill"/></svg>